<svg xmlns="http://www.w3.org/2000/svg" xmlns:xlink="http://www.w3.org/1999/xlink" width="200" zoomAndPan="magnify" viewBox="0 0 150 37.5" height="50" preserveAspectRatio="xMidYMid meet" version="1.0"><defs><g/><clipPath id="b59c5276bf"><path d="M 0.339844 6.28125 L 23.292969 6.28125 L 23.292969 31.859375 L 0.339844 31.859375 Z M 0.339844 6.28125 " clip-rule="nonzero"/></clipPath><clipPath id="c4a5f1fbd0"><path d="M 0.339844 24 L 2 24 L 2 26 L 0.339844 26 Z M 0.339844 24 " clip-rule="nonzero"/></clipPath><clipPath id="7566a3c588"><path d="M 13.203125 4.484375 L 26.257812 4.484375 L 26.257812 17.539062 L 13.203125 17.539062 Z M 13.203125 4.484375 " clip-rule="nonzero"/></clipPath><clipPath id="6c6f6522b0"><path d="M 19.730469 4.484375 C 16.125 4.484375 13.203125 7.40625 13.203125 11.011719 C 13.203125 14.613281 16.125 17.539062 19.730469 17.539062 C 23.335938 17.539062 26.257812 14.613281 26.257812 11.011719 C 26.257812 7.40625 23.335938 4.484375 19.730469 4.484375 Z M 19.730469 4.484375 " clip-rule="nonzero"/></clipPath><clipPath id="3c153f1875"><path d="M 0.203125 0.484375 L 13.257812 0.484375 L 13.257812 13.539062 L 0.203125 13.539062 Z M 0.203125 0.484375 " clip-rule="nonzero"/></clipPath><clipPath id="5bef915b2b"><path d="M 6.730469 0.484375 C 3.125 0.484375 0.203125 3.40625 0.203125 7.011719 C 0.203125 10.613281 3.125 13.539062 6.730469 13.539062 C 10.335938 13.539062 13.257812 10.613281 13.257812 7.011719 C 13.257812 3.40625 10.335938 0.484375 6.730469 0.484375 Z M 6.730469 0.484375 " clip-rule="nonzero"/></clipPath><clipPath id="7ba78ff30f"><rect x="0" width="14" y="0" height="14"/></clipPath><clipPath id="f4c5c9bb1a"><path d="M 33 0.183594 L 131.488281 0.183594 L 131.488281 27 L 33 27 Z M 33 0.183594 " clip-rule="nonzero"/></clipPath><clipPath id="87a8d9af3d"><path d="M 0.199219 6 L 20 6 L 20 20 L 0.199219 20 Z M 0.199219 6 " clip-rule="nonzero"/></clipPath><clipPath id="b6e81cd06d"><rect x="0" width="99" y="0" height="27"/></clipPath><clipPath id="b76e4eed84"><path d="M 33 20 L 131 20 L 131 32.867188 L 33 32.867188 Z M 33 20 " clip-rule="nonzero"/></clipPath><clipPath id="01fe403936"><path d="M 0.199219 3 L 7 3 L 7 11 L 0.199219 11 Z M 0.199219 3 " clip-rule="nonzero"/></clipPath><clipPath id="bd48abfed4"><path d="M 23 5 L 29 5 L 29 12.867188 L 23 12.867188 Z M 23 5 " clip-rule="nonzero"/></clipPath><clipPath id="a9b6d61f47"><rect x="0" width="98" y="0" height="13"/></clipPath><clipPath id="111bbc949c"><rect x="0" width="132" y="0" height="33"/></clipPath></defs><g transform="matrix(1, 0, 0, 1, 9, 1)"><g clip-path="url(#111bbc949c)"><path fill="#6366f1" d="M 3.285156 18.496094 L 4.972656 18.496094 C 5.203125 18.496094 5.402344 18.414062 5.566406 18.25 C 5.730469 18.085938 5.816406 17.886719 5.816406 17.652344 L 5.816406 15.96875 C 5.816406 15.738281 5.730469 15.539062 5.566406 15.375 C 5.402344 15.207031 5.203125 15.125 4.972656 15.125 L 3.285156 15.125 C 3.054688 15.125 2.855469 15.207031 2.691406 15.375 C 2.527344 15.539062 2.445312 15.738281 2.445312 15.96875 L 2.445312 17.652344 C 2.445312 17.886719 2.527344 18.085938 2.691406 18.25 C 2.855469 18.414062 3.054688 18.496094 3.285156 18.496094 Z M 3.285156 15.96875 L 4.972656 15.96875 L 4.972656 17.652344 L 3.285156 17.652344 Z M 3.285156 15.96875 " fill-opacity="1" fill-rule="nonzero"/><path fill="#6366f1" d="M 8.34375 18.496094 L 10.027344 18.496094 C 10.261719 18.496094 10.457031 18.414062 10.625 18.25 C 10.789062 18.085938 10.871094 17.886719 10.871094 17.652344 L 10.871094 15.96875 C 10.871094 15.738281 10.789062 15.539062 10.625 15.375 C 10.457031 15.207031 10.261719 15.125 10.027344 15.125 L 8.34375 15.125 C 8.109375 15.125 7.910156 15.207031 7.746094 15.375 C 7.582031 15.539062 7.5 15.738281 7.5 15.96875 L 7.5 17.652344 C 7.5 17.886719 7.582031 18.085938 7.746094 18.25 C 7.910156 18.414062 8.109375 18.496094 8.34375 18.496094 Z M 8.34375 15.96875 L 10.027344 15.96875 L 10.027344 17.652344 L 8.34375 17.652344 Z M 8.34375 15.96875 " fill-opacity="1" fill-rule="nonzero"/><path fill="#6366f1" d="M 13.398438 18.496094 L 15.082031 18.496094 C 15.316406 18.496094 15.515625 18.414062 15.679688 18.25 C 15.84375 18.085938 15.925781 17.886719 15.925781 17.652344 L 15.925781 15.96875 C 15.925781 15.738281 15.84375 15.539062 15.679688 15.375 C 15.515625 15.207031 15.316406 15.125 15.082031 15.125 L 13.398438 15.125 C 13.164062 15.125 12.964844 15.207031 12.800781 15.375 C 12.636719 15.539062 12.554688 15.738281 12.554688 15.96875 L 12.554688 17.652344 C 12.554688 17.886719 12.636719 18.085938 12.800781 18.25 C 12.964844 18.414062 13.164062 18.496094 13.398438 18.496094 Z M 13.398438 15.96875 L 15.082031 15.96875 L 15.082031 17.652344 L 13.398438 17.652344 Z M 13.398438 15.96875 " fill-opacity="1" fill-rule="nonzero"/><path fill="#6366f1" d="M 18.453125 18.496094 L 20.136719 18.496094 C 20.371094 18.496094 20.570312 18.414062 20.734375 18.25 C 20.898438 18.085938 20.980469 17.886719 20.980469 17.652344 L 20.980469 15.96875 C 20.980469 15.738281 20.898438 15.539062 20.734375 15.375 C 20.570312 15.207031 20.371094 15.125 20.136719 15.125 L 18.453125 15.125 C 18.21875 15.125 18.023438 15.207031 17.855469 15.375 C 17.691406 15.539062 17.609375 15.738281 17.609375 15.96875 L 17.609375 17.652344 C 17.609375 17.886719 17.691406 18.085938 17.855469 18.25 C 18.023438 18.414062 18.21875 18.496094 18.453125 18.496094 Z M 18.453125 15.96875 L 20.136719 15.96875 L 20.136719 17.652344 L 18.453125 17.652344 Z M 18.453125 15.96875 " fill-opacity="1" fill-rule="nonzero"/><path fill="#6366f1" d="M 2.445312 22.289062 C 2.445312 22.519531 2.527344 22.71875 2.691406 22.882812 C 2.855469 23.046875 3.054688 23.128906 3.285156 23.128906 L 4.972656 23.128906 C 5.203125 23.128906 5.402344 23.046875 5.566406 22.882812 C 5.730469 22.71875 5.816406 22.519531 5.816406 22.289062 L 5.816406 20.601562 C 5.816406 20.371094 5.730469 20.171875 5.566406 20.007812 C 5.402344 19.84375 5.203125 19.761719 4.972656 19.761719 L 3.285156 19.761719 C 3.054688 19.761719 2.855469 19.84375 2.691406 20.007812 C 2.527344 20.171875 2.445312 20.371094 2.445312 20.601562 Z M 3.285156 20.601562 L 4.972656 20.601562 L 4.972656 22.289062 L 3.285156 22.289062 Z M 3.285156 20.601562 " fill-opacity="1" fill-rule="nonzero"/><path fill="#6366f1" d="M 7.5 22.078125 C 7.5 22.308594 7.582031 22.507812 7.746094 22.671875 C 7.910156 22.839844 8.109375 22.921875 8.34375 22.921875 L 10.027344 22.921875 C 10.261719 22.921875 10.457031 22.839844 10.625 22.671875 C 10.789062 22.507812 10.871094 22.308594 10.871094 22.078125 L 10.871094 20.390625 C 10.871094 20.160156 10.789062 19.960938 10.625 19.796875 C 10.457031 19.632812 10.261719 19.550781 10.027344 19.550781 L 8.34375 19.550781 C 8.109375 19.550781 7.910156 19.632812 7.746094 19.796875 C 7.582031 19.960938 7.5 20.160156 7.5 20.390625 Z M 8.34375 20.390625 L 10.027344 20.390625 L 10.027344 22.078125 L 8.34375 22.078125 Z M 8.34375 20.390625 " fill-opacity="1" fill-rule="nonzero"/><path fill="#6366f1" d="M 12.554688 22.078125 C 12.554688 22.308594 12.636719 22.507812 12.800781 22.671875 C 12.964844 22.839844 13.164062 22.921875 13.398438 22.921875 L 15.082031 22.921875 C 15.316406 22.921875 15.515625 22.839844 15.679688 22.671875 C 15.84375 22.507812 15.925781 22.308594 15.925781 22.078125 L 15.925781 20.390625 C 15.925781 20.160156 15.84375 19.960938 15.679688 19.796875 C 15.515625 19.632812 15.316406 19.550781 15.082031 19.550781 L 13.398438 19.550781 C 13.164062 19.550781 12.964844 19.632812 12.800781 19.796875 C 12.636719 19.960938 12.554688 20.160156 12.554688 20.390625 Z M 13.398438 20.390625 L 15.082031 20.390625 L 15.082031 22.078125 L 13.398438 22.078125 Z M 13.398438 20.390625 " fill-opacity="1" fill-rule="nonzero"/><path fill="#6366f1" d="M 17.609375 22.078125 C 17.609375 22.308594 17.691406 22.507812 17.855469 22.671875 C 18.023438 22.839844 18.21875 22.921875 18.453125 22.921875 L 20.136719 22.921875 C 20.371094 22.921875 20.570312 22.839844 20.734375 22.671875 C 20.898438 22.507812 20.980469 22.308594 20.980469 22.078125 L 20.980469 20.390625 C 20.980469 20.160156 20.898438 19.960938 20.734375 19.796875 C 20.570312 19.632812 20.371094 19.550781 20.136719 19.550781 L 18.453125 19.550781 C 18.21875 19.550781 18.023438 19.632812 17.855469 19.796875 C 17.691406 19.960938 17.609375 20.160156 17.609375 20.390625 Z M 18.453125 20.390625 L 20.136719 20.390625 L 20.136719 22.078125 L 18.453125 22.078125 Z M 18.453125 20.390625 " fill-opacity="1" fill-rule="nonzero"/><path fill="#6366f1" d="M 2.445312 26.5 C 2.445312 26.734375 2.527344 26.933594 2.691406 27.097656 C 2.855469 27.261719 3.054688 27.34375 3.285156 27.34375 L 4.972656 27.34375 C 5.203125 27.34375 5.402344 27.261719 5.566406 27.097656 C 5.730469 26.933594 5.816406 26.734375 5.816406 26.5 L 5.816406 24.816406 C 5.816406 24.582031 5.730469 24.382812 5.566406 24.21875 C 5.402344 24.054688 5.203125 23.972656 4.972656 23.972656 L 3.285156 23.972656 C 3.054688 23.972656 2.855469 24.054688 2.691406 24.21875 C 2.527344 24.382812 2.445312 24.582031 2.445312 24.816406 Z M 3.285156 24.816406 L 4.972656 24.816406 L 4.972656 26.5 L 3.285156 26.5 Z M 3.285156 24.816406 " fill-opacity="1" fill-rule="nonzero"/><path fill="#6366f1" d="M 7.5 26.5 C 7.5 26.734375 7.582031 26.933594 7.746094 27.097656 C 7.910156 27.261719 8.109375 27.34375 8.34375 27.34375 L 10.027344 27.34375 C 10.261719 27.34375 10.457031 27.261719 10.625 27.097656 C 10.789062 26.933594 10.871094 26.734375 10.871094 26.5 L 10.871094 24.816406 C 10.871094 24.582031 10.789062 24.382812 10.625 24.21875 C 10.457031 24.054688 10.261719 23.972656 10.027344 23.972656 L 8.34375 23.972656 C 8.109375 23.972656 7.910156 24.054688 7.746094 24.21875 C 7.582031 24.382812 7.5 24.582031 7.5 24.816406 Z M 8.34375 24.816406 L 10.027344 24.816406 L 10.027344 26.5 L 8.34375 26.5 Z M 8.34375 24.816406 " fill-opacity="1" fill-rule="nonzero"/><path fill="#6366f1" d="M 12.554688 26.5 C 12.554688 26.734375 12.636719 26.933594 12.800781 27.097656 C 12.964844 27.261719 13.164062 27.34375 13.398438 27.34375 L 15.082031 27.34375 C 15.316406 27.34375 15.515625 27.261719 15.679688 27.097656 C 15.84375 26.933594 15.925781 26.734375 15.925781 26.5 L 15.925781 24.816406 C 15.925781 24.582031 15.84375 24.382812 15.679688 24.21875 C 15.515625 24.054688 15.316406 23.972656 15.082031 23.972656 L 13.398438 23.972656 C 13.164062 23.972656 12.964844 24.054688 12.800781 24.21875 C 12.636719 24.382812 12.554688 24.582031 12.554688 24.816406 Z M 13.398438 24.816406 L 15.082031 24.816406 L 15.082031 26.5 L 13.398438 26.5 Z M 13.398438 24.816406 " fill-opacity="1" fill-rule="nonzero"/><g clip-path="url(#b59c5276bf)"><path fill="#6366f1" d="M 20.980469 7.964844 L 19.71875 7.964844 L 19.71875 7.753906 C 19.71875 7.558594 19.679688 7.371094 19.605469 7.191406 C 19.53125 7.007812 19.421875 6.851562 19.285156 6.710938 C 19.148438 6.574219 18.988281 6.464844 18.808594 6.390625 C 18.625 6.316406 18.4375 6.28125 18.242188 6.28125 C 18.046875 6.28125 17.859375 6.316406 17.679688 6.390625 C 17.496094 6.464844 17.339844 6.574219 17.199219 6.710938 C 17.0625 6.851562 16.953125 7.007812 16.878906 7.191406 C 16.804688 7.371094 16.769531 7.558594 16.769531 7.753906 L 16.769531 7.964844 L 13.1875 7.964844 L 13.1875 7.753906 C 13.1875 7.558594 13.148438 7.371094 13.074219 7.191406 C 13 7.007812 12.894531 6.851562 12.753906 6.710938 C 12.617188 6.574219 12.457031 6.464844 12.277344 6.390625 C 12.097656 6.316406 11.90625 6.28125 11.710938 6.28125 C 11.515625 6.28125 11.328125 6.316406 11.148438 6.390625 C 10.96875 6.464844 10.808594 6.574219 10.671875 6.710938 C 10.53125 6.851562 10.425781 7.007812 10.351562 7.191406 C 10.277344 7.371094 10.238281 7.558594 10.238281 7.753906 L 10.238281 7.964844 L 6.65625 7.964844 L 6.65625 7.753906 C 6.65625 7.558594 6.621094 7.371094 6.546875 7.191406 C 6.46875 7.007812 6.363281 6.851562 6.226562 6.710938 C 6.085938 6.574219 5.925781 6.464844 5.746094 6.390625 C 5.566406 6.316406 5.378906 6.28125 5.183594 6.28125 C 4.988281 6.28125 4.800781 6.316406 4.617188 6.390625 C 4.4375 6.464844 4.277344 6.574219 4.140625 6.710938 C 4 6.851562 3.894531 7.007812 3.820312 7.191406 C 3.746094 7.371094 3.707031 7.558594 3.707031 7.753906 L 3.707031 7.964844 L 2.445312 7.964844 C 2.164062 7.964844 1.898438 8.019531 1.640625 8.125 C 1.378906 8.234375 1.152344 8.386719 0.957031 8.582031 C 0.757812 8.78125 0.605469 9.007812 0.5 9.265625 C 0.390625 9.523438 0.339844 9.792969 0.339844 10.070312 L 0.339844 23.128906 C 0.339844 23.246094 0.378906 23.347656 0.460938 23.429688 C 0.542969 23.511719 0.644531 23.550781 0.757812 23.550781 C 0.875 23.550781 0.976562 23.511719 1.058594 23.429688 C 1.140625 23.347656 1.179688 23.246094 1.179688 23.128906 L 1.179688 13.863281 L 22.246094 13.863281 L 22.246094 23.972656 C 22.246094 24.089844 22.203125 24.1875 22.121094 24.269531 C 22.039062 24.355469 21.941406 24.394531 21.824219 24.394531 L 19.71875 24.394531 C 19.4375 24.394531 19.167969 24.449219 18.910156 24.554688 C 18.652344 24.664062 18.425781 24.816406 18.226562 25.011719 C 18.03125 25.210938 17.878906 25.4375 17.773438 25.695312 C 17.664062 25.953125 17.609375 26.222656 17.609375 26.5 L 17.609375 28.609375 C 17.609375 28.722656 17.570312 28.824219 17.488281 28.90625 C 17.40625 28.988281 17.304688 29.027344 17.1875 29.027344 L 2.445312 29.003906 C 2.277344 29.003906 2.117188 28.972656 1.960938 28.90625 C 1.804688 28.84375 1.667969 28.75 1.550781 28.632812 C 1.433594 28.515625 1.339844 28.378906 1.277344 28.222656 C 1.210938 28.066406 1.179688 27.90625 1.179688 27.738281 L 1.179688 26.5 C 1.179688 26.382812 1.140625 26.285156 1.058594 26.203125 C 0.976562 26.121094 0.875 26.078125 0.757812 26.078125 C 0.644531 26.078125 0.542969 26.121094 0.460938 26.203125 C 0.378906 26.285156 0.339844 26.382812 0.339844 26.5 L 0.339844 29.449219 C 0.339844 29.730469 0.390625 29.996094 0.5 30.253906 C 0.605469 30.511719 0.757812 30.742188 0.957031 30.9375 C 1.152344 31.136719 1.378906 31.289062 1.640625 31.394531 C 1.898438 31.503906 2.164062 31.554688 2.445312 31.554688 L 20.980469 31.554688 C 21.261719 31.554688 21.527344 31.503906 21.785156 31.394531 C 22.042969 31.289062 22.273438 31.136719 22.46875 30.9375 C 22.667969 30.742188 22.820312 30.511719 22.925781 30.253906 C 23.03125 29.996094 23.085938 29.730469 23.085938 29.449219 L 23.085938 10.070312 C 23.085938 9.792969 23.03125 9.523438 22.925781 9.265625 C 22.820312 9.007812 22.667969 8.78125 22.46875 8.582031 C 22.273438 8.386719 22.042969 8.234375 21.785156 8.125 C 21.527344 8.019531 21.261719 7.964844 20.980469 7.964844 Z M 17.609375 7.753906 C 17.609375 7.578125 17.671875 7.429688 17.796875 7.308594 C 17.917969 7.183594 18.066406 7.121094 18.242188 7.121094 C 18.417969 7.121094 18.566406 7.183594 18.6875 7.308594 C 18.8125 7.429688 18.875 7.578125 18.875 7.753906 L 18.875 9.4375 C 18.875 9.613281 18.8125 9.761719 18.6875 9.886719 C 18.566406 10.007812 18.417969 10.070312 18.242188 10.070312 C 18.066406 10.070312 17.917969 10.007812 17.796875 9.886719 C 17.671875 9.761719 17.609375 9.613281 17.609375 9.4375 Z M 11.082031 7.753906 C 11.082031 7.578125 11.140625 7.429688 11.265625 7.308594 C 11.390625 7.183594 11.539062 7.121094 11.710938 7.121094 C 11.886719 7.121094 12.035156 7.183594 12.160156 7.308594 C 12.28125 7.429688 12.34375 7.578125 12.34375 7.753906 L 12.34375 9.4375 C 12.34375 9.613281 12.28125 9.761719 12.160156 9.886719 C 12.035156 10.007812 11.886719 10.070312 11.710938 10.070312 C 11.539062 10.070312 11.390625 10.007812 11.265625 9.886719 C 11.140625 9.761719 11.082031 9.613281 11.082031 9.4375 Z M 4.550781 7.753906 C 4.550781 7.578125 4.613281 7.429688 4.734375 7.308594 C 4.859375 7.183594 5.007812 7.121094 5.183594 7.121094 C 5.355469 7.121094 5.507812 7.183594 5.628906 7.308594 C 5.753906 7.429688 5.816406 7.578125 5.816406 7.753906 L 5.816406 9.4375 C 5.816406 9.613281 5.753906 9.761719 5.628906 9.886719 C 5.507812 10.007812 5.355469 10.070312 5.183594 10.070312 C 5.007812 10.070312 4.859375 10.007812 4.734375 9.886719 C 4.613281 9.761719 4.550781 9.613281 4.550781 9.4375 Z M 1.179688 13.019531 L 1.179688 10.070312 C 1.179688 9.902344 1.210938 9.742188 1.277344 9.585938 C 1.339844 9.433594 1.433594 9.296875 1.550781 9.175781 C 1.667969 9.058594 1.804688 8.96875 1.960938 8.902344 C 2.117188 8.839844 2.277344 8.808594 2.445312 8.808594 L 3.707031 8.808594 L 3.707031 9.4375 C 3.707031 9.636719 3.746094 9.824219 3.820312 10.003906 C 3.894531 10.183594 4 10.34375 4.140625 10.480469 C 4.277344 10.621094 4.4375 10.726562 4.617188 10.800781 C 4.800781 10.875 4.988281 10.914062 5.183594 10.914062 C 5.378906 10.914062 5.566406 10.875 5.746094 10.800781 C 5.925781 10.726562 6.085938 10.621094 6.226562 10.480469 C 6.363281 10.34375 6.46875 10.183594 6.546875 10.003906 C 6.621094 9.824219 6.65625 9.636719 6.65625 9.4375 L 6.65625 8.808594 L 10.238281 8.808594 L 10.238281 9.4375 C 10.238281 9.636719 10.277344 9.824219 10.351562 10.003906 C 10.425781 10.183594 10.53125 10.34375 10.671875 10.480469 C 10.808594 10.621094 10.96875 10.726562 11.148438 10.800781 C 11.328125 10.875 11.515625 10.914062 11.710938 10.914062 C 11.90625 10.914062 12.097656 10.875 12.277344 10.800781 C 12.457031 10.726562 12.617188 10.621094 12.753906 10.480469 C 12.894531 10.34375 13 10.183594 13.074219 10.003906 C 13.148438 9.824219 13.1875 9.636719 13.1875 9.4375 L 13.1875 8.808594 L 16.769531 8.808594 L 16.769531 9.4375 C 16.769531 9.636719 16.804688 9.824219 16.878906 10.003906 C 16.953125 10.183594 17.0625 10.34375 17.199219 10.480469 C 17.339844 10.621094 17.496094 10.726562 17.679688 10.800781 C 17.859375 10.875 18.046875 10.914062 18.242188 10.914062 C 18.4375 10.914062 18.625 10.875 18.808594 10.800781 C 18.988281 10.726562 19.148438 10.621094 19.285156 10.480469 C 19.421875 10.34375 19.53125 10.183594 19.605469 10.003906 C 19.679688 9.824219 19.71875 9.636719 19.71875 9.4375 L 19.71875 8.808594 L 20.980469 8.808594 C 21.148438 8.808594 21.308594 8.839844 21.464844 8.902344 C 21.621094 8.96875 21.757812 9.058594 21.875 9.175781 C 21.992188 9.296875 22.085938 9.433594 22.148438 9.585938 C 22.210938 9.742188 22.246094 9.902344 22.246094 10.070312 L 22.246094 13.019531 Z M 18.453125 26.5 C 18.453125 26.332031 18.484375 26.171875 18.550781 26.015625 C 18.613281 25.863281 18.703125 25.726562 18.824219 25.605469 C 18.941406 25.488281 19.078125 25.398438 19.234375 25.332031 C 19.386719 25.269531 19.550781 25.238281 19.71875 25.238281 L 21.648438 25.238281 L 18.453125 28.433594 Z M 20.980469 30.714844 L 2.445312 30.714844 C 2.273438 30.714844 2.109375 30.679688 1.953125 30.613281 C 1.796875 30.546875 1.65625 30.453125 1.539062 30.328125 C 1.417969 30.207031 1.328125 30.066406 1.265625 29.90625 C 1.203125 29.75 1.175781 29.582031 1.179688 29.414062 C 1.550781 29.699219 1.972656 29.84375 2.441406 29.84375 L 17.328125 29.871094 C 17.914062 29.871094 18.410156 29.664062 18.824219 29.253906 L 22.246094 25.832031 L 22.246094 29.449219 C 22.246094 29.617188 22.210938 29.777344 22.148438 29.933594 C 22.085938 30.089844 21.992188 30.226562 21.875 30.34375 C 21.757812 30.460938 21.621094 30.554688 21.464844 30.617188 C 21.308594 30.683594 21.148438 30.714844 20.980469 30.714844 Z M 20.980469 30.714844 " fill-opacity="1" fill-rule="nonzero"/></g><g clip-path="url(#c4a5f1fbd0)"><path fill="#6366f1" d="M 1.179688 24.816406 C 1.179688 24.933594 1.140625 25.03125 1.058594 25.113281 C 0.976562 25.195312 0.875 25.238281 0.757812 25.238281 C 0.644531 25.238281 0.542969 25.195312 0.460938 25.113281 C 0.378906 25.03125 0.339844 24.933594 0.339844 24.816406 C 0.339844 24.699219 0.378906 24.601562 0.460938 24.519531 C 0.542969 24.4375 0.644531 24.394531 0.757812 24.394531 C 0.875 24.394531 0.976562 24.4375 1.058594 24.519531 C 1.140625 24.601562 1.179688 24.699219 1.179688 24.816406 Z M 1.179688 24.816406 " fill-opacity="1" fill-rule="nonzero"/></g><g clip-path="url(#7566a3c588)"><g clip-path="url(#6c6f6522b0)"><g transform="matrix(1, 0, 0, 1, 13, 4)"><g clip-path="url(#7ba78ff30f)"><g clip-path="url(#3c153f1875)"><g clip-path="url(#5bef915b2b)"><path fill="#ffffff" d="M 0.203125 0.484375 L 13.257812 0.484375 L 13.257812 13.539062 L 0.203125 13.539062 Z M 0.203125 0.484375 " fill-opacity="1" fill-rule="nonzero"/></g></g></g></g></g></g><path fill="#6366f1" d="M 20.316406 6.289062 L 20.316406 6.050781 C 20.316406 5.933594 20.273438 5.828125 20.1875 5.746094 C 20.101562 5.660156 20 5.617188 19.878906 5.617188 C 19.761719 5.617188 19.65625 5.660156 19.574219 5.746094 C 19.488281 5.828125 19.445312 5.933594 19.445312 6.050781 L 19.445312 6.289062 C 19.445312 6.40625 19.488281 6.511719 19.574219 6.59375 C 19.65625 6.679688 19.761719 6.722656 19.878906 6.722656 C 20 6.722656 20.101562 6.679688 20.1875 6.59375 C 20.273438 6.511719 20.316406 6.40625 20.316406 6.289062 Z M 20.316406 6.289062 " fill-opacity="1" fill-rule="nonzero"/><path fill="#6366f1" d="M 19.878906 15.207031 C 19.757812 15.207031 19.65625 15.25 19.570312 15.335938 C 19.488281 15.421875 19.445312 15.523438 19.445312 15.644531 L 19.445312 15.878906 C 19.445312 16 19.488281 16.101562 19.574219 16.1875 C 19.65625 16.273438 19.761719 16.316406 19.878906 16.316406 C 20 16.316406 20.101562 16.273438 20.1875 16.1875 C 20.273438 16.101562 20.316406 16 20.316406 15.878906 L 20.316406 15.644531 C 20.316406 15.523438 20.273438 15.421875 20.191406 15.335938 C 20.105469 15.25 20 15.207031 19.878906 15.207031 Z M 19.878906 15.207031 " fill-opacity="1" fill-rule="nonzero"/><path fill="#6366f1" d="M 24.554688 10.527344 C 24.4375 10.527344 24.332031 10.570312 24.25 10.65625 C 24.164062 10.742188 24.121094 10.84375 24.121094 10.964844 C 24.121094 11.082031 24.164062 11.1875 24.25 11.269531 C 24.332031 11.355469 24.4375 11.398438 24.554688 11.398438 L 24.792969 11.398438 C 24.914062 11.398438 25.015625 11.355469 25.101562 11.269531 C 25.1875 11.1875 25.230469 11.082031 25.230469 10.964844 C 25.230469 10.84375 25.1875 10.742188 25.101562 10.65625 C 25.015625 10.570312 24.914062 10.527344 24.792969 10.527344 Z M 24.554688 10.527344 " fill-opacity="1" fill-rule="nonzero"/><path fill="#6366f1" d="M 14.96875 10.527344 C 14.847656 10.527344 14.746094 10.570312 14.660156 10.65625 C 14.578125 10.742188 14.535156 10.84375 14.535156 10.964844 C 14.535156 11.082031 14.578125 11.1875 14.660156 11.269531 C 14.746094 11.355469 14.847656 11.398438 14.96875 11.398438 L 15.203125 11.398438 C 15.324219 11.398438 15.425781 11.355469 15.511719 11.269531 C 15.597656 11.1875 15.640625 11.082031 15.640625 10.964844 C 15.640625 10.84375 15.597656 10.742188 15.511719 10.65625 C 15.425781 10.570312 15.324219 10.527344 15.203125 10.527344 Z M 14.96875 10.527344 " fill-opacity="1" fill-rule="nonzero"/><path fill="#6366f1" d="M 26.277344 8.640625 C 26.234375 8.527344 26.160156 8.445312 26.050781 8.394531 C 25.941406 8.34375 25.832031 8.339844 25.71875 8.378906 C 25.605469 8.421875 25.523438 8.496094 25.472656 8.605469 C 25.421875 8.714844 25.417969 8.824219 25.457031 8.9375 C 25.699219 9.589844 25.816406 10.265625 25.816406 10.964844 C 25.816406 11.421875 25.765625 11.871094 25.660156 12.320312 C 25.554688 12.765625 25.402344 13.191406 25.199219 13.601562 C 24.996094 14.011719 24.75 14.394531 24.457031 14.75 C 24.167969 15.101562 23.839844 15.417969 23.472656 15.695312 C 23.109375 15.972656 22.71875 16.203125 22.300781 16.390625 C 21.882812 16.578125 21.449219 16.714844 21 16.800781 C 20.550781 16.886719 20.097656 16.921875 19.640625 16.902344 C 19.183594 16.882812 18.734375 16.8125 18.292969 16.691406 C 17.851562 16.570312 17.429688 16.398438 17.027344 16.179688 C 16.625 15.960938 16.253906 15.695312 15.914062 15.390625 C 15.574219 15.085938 15.269531 14.746094 15.007812 14.371094 C 14.746094 13.996094 14.53125 13.59375 14.363281 13.167969 C 14.191406 12.746094 14.074219 12.304688 14.003906 11.851562 C 13.9375 11.398438 13.921875 10.945312 13.957031 10.488281 C 13.996094 10.03125 14.082031 9.585938 14.222656 9.152344 C 14.363281 8.714844 14.550781 8.300781 14.789062 7.910156 C 15.023438 7.515625 15.300781 7.15625 15.621094 6.828125 C 15.941406 6.5 16.292969 6.210938 16.679688 5.964844 C 17.0625 5.71875 17.472656 5.519531 17.90625 5.367188 C 18.335938 5.214844 18.78125 5.117188 19.234375 5.066406 C 19.691406 5.015625 20.144531 5.019531 20.597656 5.074219 C 21.054688 5.128906 21.496094 5.238281 21.925781 5.394531 C 22.355469 5.554688 22.761719 5.757812 23.144531 6.011719 C 23.527344 6.261719 23.875 6.554688 24.1875 6.886719 L 19.894531 10.390625 L 18.574219 9.183594 C 18.496094 9.109375 18.402344 9.070312 18.296875 9.066406 C 18.1875 9.066406 18.09375 9.097656 18.007812 9.167969 C 17.925781 9.234375 17.875 9.320312 17.855469 9.429688 C 17.835938 9.535156 17.855469 9.632812 17.910156 9.726562 L 19.519531 12.402344 C 19.59375 12.523438 19.699219 12.59375 19.839844 12.613281 L 19.894531 12.613281 C 20.019531 12.617188 20.128906 12.570312 20.214844 12.480469 L 26.234375 6.363281 C 26.324219 6.28125 26.371094 6.179688 26.375 6.058594 C 26.382812 5.941406 26.34375 5.835938 26.261719 5.746094 C 26.183594 5.65625 26.082031 5.609375 25.960938 5.605469 C 25.839844 5.597656 25.738281 5.636719 25.648438 5.71875 L 24.886719 6.339844 C 24.699219 6.136719 24.5 5.945312 24.285156 5.769531 C 24.074219 5.59375 23.851562 5.429688 23.621094 5.277344 C 23.386719 5.128906 23.148438 4.992188 22.898438 4.871094 C 22.648438 4.75 22.394531 4.644531 22.132812 4.554688 C 21.871094 4.46875 21.605469 4.394531 21.335938 4.335938 C 21.066406 4.28125 20.792969 4.238281 20.515625 4.21875 C 20.242188 4.195312 19.964844 4.1875 19.6875 4.199219 C 19.410156 4.207031 19.136719 4.234375 18.863281 4.28125 C 18.589844 4.324219 18.320312 4.382812 18.054688 4.460938 C 17.792969 4.539062 17.53125 4.632812 17.277344 4.742188 C 17.023438 4.851562 16.777344 4.976562 16.539062 5.113281 C 16.300781 5.253906 16.070312 5.40625 15.851562 5.574219 C 15.628906 5.742188 15.421875 5.921875 15.222656 6.117188 C 15.023438 6.308594 14.839844 6.511719 14.667969 6.730469 C 14.492188 6.945312 14.335938 7.171875 14.191406 7.40625 C 14.042969 7.640625 13.914062 7.882812 13.800781 8.136719 C 13.683594 8.386719 13.585938 8.644531 13.5 8.90625 C 13.417969 9.171875 13.351562 9.4375 13.296875 9.710938 C 13.246094 9.984375 13.214844 10.257812 13.195312 10.53125 C 13.179688 10.808594 13.179688 11.085938 13.195312 11.359375 C 13.210938 11.636719 13.246094 11.910156 13.296875 12.183594 C 13.347656 12.453125 13.414062 12.722656 13.496094 12.984375 C 13.578125 13.25 13.675781 13.507812 13.792969 13.757812 C 13.90625 14.011719 14.035156 14.253906 14.179688 14.488281 C 14.324219 14.726562 14.484375 14.953125 14.65625 15.167969 C 14.828125 15.382812 15.011719 15.589844 15.210938 15.78125 C 15.40625 15.976562 15.617188 16.15625 15.835938 16.324219 C 16.054688 16.492188 16.285156 16.648438 16.523438 16.789062 C 16.761719 16.925781 17.007812 17.050781 17.261719 17.164062 C 17.515625 17.273438 17.773438 17.367188 18.039062 17.445312 C 18.304688 17.523438 18.574219 17.582031 18.847656 17.628906 C 19.121094 17.671875 19.394531 17.699219 19.671875 17.710938 C 19.945312 17.722656 20.222656 17.71875 20.5 17.695312 C 20.773438 17.671875 21.046875 17.632812 21.316406 17.578125 C 21.589844 17.519531 21.855469 17.449219 22.117188 17.359375 C 22.378906 17.269531 22.632812 17.167969 22.882812 17.046875 C 23.132812 16.925781 23.375 16.792969 23.605469 16.640625 C 23.839844 16.492188 24.0625 16.328125 24.273438 16.152344 C 24.484375 15.976562 24.6875 15.785156 24.875 15.585938 C 25.066406 15.382812 25.242188 15.171875 25.40625 14.945312 C 25.566406 14.722656 25.71875 14.492188 25.851562 14.25 C 25.988281 14.007812 26.105469 13.761719 26.210938 13.503906 C 26.3125 13.246094 26.402344 12.984375 26.472656 12.71875 C 26.546875 12.453125 26.601562 12.183594 26.640625 11.90625 C 26.679688 11.632812 26.703125 11.359375 26.707031 11.082031 C 26.710938 10.804688 26.699219 10.53125 26.671875 10.253906 C 26.644531 9.980469 26.597656 9.707031 26.535156 9.4375 C 26.472656 9.167969 26.394531 8.90625 26.300781 8.644531 Z M 26.277344 8.640625 " fill-opacity="1" fill-rule="nonzero"/><g clip-path="url(#f4c5c9bb1a)"><g transform="matrix(1, 0, 0, 1, 33, -0.000000000000001554)"><g clip-path="url(#b6e81cd06d)"><g clip-path="url(#87a8d9af3d)"><g fill="#6366f1" fill-opacity="1"><g transform="translate(0.282648, 19.638117)"><g><path d="M 19.328125 -13.203125 L 15.890625 0 L 12 0 L 9.890625 -8.6875 L 7.703125 0 L 3.8125 0 L 0.46875 -13.203125 L 3.90625 -13.203125 L 5.8125 -3.59375 L 8.15625 -13.203125 L 11.6875 -13.203125 L 13.953125 -3.59375 L 15.859375 -13.203125 Z M 19.328125 -13.203125 "/></g></g></g></g><g fill="#6366f1" fill-opacity="1"><g transform="translate(20.052627, 19.638117)"><g><path d="M 7.40625 0.125 C 6.164062 0.125 5.023438 -0.160156 3.984375 -0.734375 C 2.953125 -1.304688 2.132812 -2.109375 1.53125 -3.140625 C 0.925781 -4.179688 0.625 -5.347656 0.625 -6.640625 C 0.625 -7.929688 0.925781 -9.085938 1.53125 -10.109375 C 2.132812 -11.140625 2.953125 -11.941406 3.984375 -12.515625 C 5.023438 -13.097656 6.164062 -13.390625 7.40625 -13.390625 C 8.644531 -13.390625 9.78125 -13.097656 10.8125 -12.515625 C 11.851562 -11.941406 12.671875 -11.140625 13.265625 -10.109375 C 13.859375 -9.085938 14.15625 -7.929688 14.15625 -6.640625 C 14.15625 -5.347656 13.851562 -4.179688 13.25 -3.140625 C 12.644531 -2.109375 11.828125 -1.304688 10.796875 -0.734375 C 9.773438 -0.160156 8.644531 0.125 7.40625 0.125 Z M 7.40625 -2.796875 C 8.457031 -2.796875 9.300781 -3.144531 9.9375 -3.84375 C 10.570312 -4.550781 10.890625 -5.484375 10.890625 -6.640625 C 10.890625 -7.804688 10.570312 -8.734375 9.9375 -9.421875 C 9.300781 -10.117188 8.457031 -10.46875 7.40625 -10.46875 C 6.34375 -10.46875 5.492188 -10.125 4.859375 -9.4375 C 4.222656 -8.75 3.90625 -7.816406 3.90625 -6.640625 C 3.90625 -5.472656 4.222656 -4.539062 4.859375 -3.84375 C 5.492188 -3.144531 6.34375 -2.796875 7.40625 -2.796875 Z M 7.40625 -2.796875 "/></g></g></g><g fill="#6366f1" fill-opacity="1"><g transform="translate(34.823737, 19.638117)"><g><path d="M 7.890625 0 L 5.15625 -4.984375 L 4.375 -4.984375 L 4.375 0 L 1.171875 0 L 1.171875 -13.203125 L 6.5625 -13.203125 C 7.601562 -13.203125 8.488281 -13.019531 9.21875 -12.65625 C 9.945312 -12.289062 10.492188 -11.789062 10.859375 -11.15625 C 11.222656 -10.519531 11.40625 -9.816406 11.40625 -9.046875 C 11.40625 -8.160156 11.15625 -7.375 10.65625 -6.6875 C 10.164062 -6 9.441406 -5.507812 8.484375 -5.21875 L 11.515625 0 Z M 4.375 -7.25 L 6.375 -7.25 C 6.957031 -7.25 7.394531 -7.394531 7.6875 -7.6875 C 7.988281 -7.976562 8.140625 -8.382812 8.140625 -8.90625 C 8.140625 -9.40625 7.988281 -9.800781 7.6875 -10.09375 C 7.394531 -10.382812 6.957031 -10.53125 6.375 -10.53125 L 4.375 -10.53125 Z M 4.375 -7.25 "/></g></g></g><g fill="#6366f1" fill-opacity="1"><g transform="translate(47.076617, 19.638117)"><g><path d="M 8.8125 0 L 4.375 -5.828125 L 4.375 0 L 1.171875 0 L 1.171875 -13.203125 L 4.375 -13.203125 L 4.375 -7.40625 L 8.78125 -13.203125 L 12.5625 -13.203125 L 7.4375 -6.734375 L 12.75 0 Z M 8.8125 0 "/></g></g></g><g fill="#6366f1" fill-opacity="1"><g transform="translate(60.175171, 19.638117)"><g><path d="M 4.375 -2.484375 L 8.59375 -2.484375 L 8.59375 0 L 1.171875 0 L 1.171875 -13.203125 L 4.375 -13.203125 Z M 4.375 -2.484375 "/></g></g></g><g fill="#6366f1" fill-opacity="1"><g transform="translate(69.139321, 19.638117)"><g><path d="M 7.40625 0.125 C 6.164062 0.125 5.023438 -0.160156 3.984375 -0.734375 C 2.953125 -1.304688 2.132812 -2.109375 1.53125 -3.140625 C 0.925781 -4.179688 0.625 -5.347656 0.625 -6.640625 C 0.625 -7.929688 0.925781 -9.085938 1.53125 -10.109375 C 2.132812 -11.140625 2.953125 -11.941406 3.984375 -12.515625 C 5.023438 -13.097656 6.164062 -13.390625 7.40625 -13.390625 C 8.644531 -13.390625 9.78125 -13.097656 10.8125 -12.515625 C 11.851562 -11.941406 12.671875 -11.140625 13.265625 -10.109375 C 13.859375 -9.085938 14.15625 -7.929688 14.15625 -6.640625 C 14.15625 -5.347656 13.851562 -4.179688 13.25 -3.140625 C 12.644531 -2.109375 11.828125 -1.304688 10.796875 -0.734375 C 9.773438 -0.160156 8.644531 0.125 7.40625 0.125 Z M 7.40625 -2.796875 C 8.457031 -2.796875 9.300781 -3.144531 9.9375 -3.84375 C 10.570312 -4.550781 10.890625 -5.484375 10.890625 -6.640625 C 10.890625 -7.804688 10.570312 -8.734375 9.9375 -9.421875 C 9.300781 -10.117188 8.457031 -10.46875 7.40625 -10.46875 C 6.34375 -10.46875 5.492188 -10.125 4.859375 -9.4375 C 4.222656 -8.75 3.90625 -7.816406 3.90625 -6.640625 C 3.90625 -5.472656 4.222656 -4.539062 4.859375 -3.84375 C 5.492188 -3.144531 6.34375 -2.796875 7.40625 -2.796875 Z M 7.40625 -2.796875 "/></g></g></g><g fill="#6366f1" fill-opacity="1"><g transform="translate(83.910432, 19.638117)"><g><path d="M 9.921875 -9.015625 C 9.679688 -9.460938 9.335938 -9.800781 8.890625 -10.03125 C 8.453125 -10.257812 7.929688 -10.375 7.328125 -10.375 C 6.285156 -10.375 5.453125 -10.03125 4.828125 -9.34375 C 4.203125 -8.664062 3.890625 -7.753906 3.890625 -6.609375 C 3.890625 -5.398438 4.21875 -4.453125 4.875 -3.765625 C 5.53125 -3.085938 6.4375 -2.75 7.59375 -2.75 C 8.382812 -2.75 9.050781 -2.945312 9.59375 -3.34375 C 10.132812 -3.75 10.535156 -4.328125 10.796875 -5.078125 L 6.703125 -5.078125 L 6.703125 -7.4375 L 13.703125 -7.4375 L 13.703125 -4.453125 C 13.460938 -3.648438 13.054688 -2.90625 12.484375 -2.21875 C 11.921875 -1.53125 11.195312 -0.972656 10.3125 -0.546875 C 9.4375 -0.117188 8.445312 0.09375 7.34375 0.09375 C 6.039062 0.09375 4.878906 -0.1875 3.859375 -0.75 C 2.835938 -1.320312 2.039062 -2.113281 1.46875 -3.125 C 0.90625 -4.144531 0.625 -5.304688 0.625 -6.609375 C 0.625 -7.921875 0.90625 -9.085938 1.46875 -10.109375 C 2.039062 -11.128906 2.832031 -11.921875 3.84375 -12.484375 C 4.863281 -13.054688 6.023438 -13.34375 7.328125 -13.34375 C 8.910156 -13.34375 10.242188 -12.957031 11.328125 -12.1875 C 12.410156 -11.425781 13.128906 -10.367188 13.484375 -9.015625 Z M 9.921875 -9.015625 "/></g></g></g></g></g></g><g clip-path="url(#b76e4eed84)"><g transform="matrix(1, 0, 0, 1, 33, 20)"><g clip-path="url(#a9b6d61f47)"><g clip-path="url(#01fe403936)"><g fill="#000000" fill-opacity="1"><g transform="translate(0.282648, 10.285182)"><g><path d="M 3.578125 0.09375 C 2.992188 0.09375 2.46875 -0.046875 2 -0.328125 C 1.539062 -0.617188 1.179688 -1.023438 0.921875 -1.546875 C 0.660156 -2.078125 0.53125 -2.695312 0.53125 -3.40625 C 0.53125 -4.125 0.660156 -4.742188 0.921875 -5.265625 C 1.179688 -5.796875 1.539062 -6.203125 2 -6.484375 C 2.46875 -6.773438 2.992188 -6.921875 3.578125 -6.921875 C 4.171875 -6.921875 4.691406 -6.773438 5.140625 -6.484375 C 5.597656 -6.203125 5.957031 -5.796875 6.21875 -5.265625 C 6.488281 -4.742188 6.625 -4.125 6.625 -3.40625 C 6.625 -2.695312 6.488281 -2.078125 6.21875 -1.546875 C 5.957031 -1.023438 5.597656 -0.617188 5.140625 -0.328125 C 4.691406 -0.046875 4.171875 0.09375 3.578125 0.09375 Z M 3.578125 -0.703125 C 3.984375 -0.703125 4.351562 -0.804688 4.6875 -1.015625 C 5.019531 -1.222656 5.285156 -1.523438 5.484375 -1.921875 C 5.679688 -2.328125 5.78125 -2.820312 5.78125 -3.40625 C 5.78125 -4 5.679688 -4.492188 5.484375 -4.890625 C 5.285156 -5.296875 5.019531 -5.601562 4.6875 -5.8125 C 4.351562 -6.019531 3.984375 -6.125 3.578125 -6.125 C 3.171875 -6.125 2.800781 -6.019531 2.46875 -5.8125 C 2.132812 -5.601562 1.867188 -5.296875 1.671875 -4.890625 C 1.472656 -4.492188 1.375 -4 1.375 -3.40625 C 1.375 -2.820312 1.472656 -2.328125 1.671875 -1.921875 C 1.867188 -1.523438 2.132812 -1.222656 2.46875 -1.015625 C 2.800781 -0.804688 3.171875 -0.703125 3.578125 -0.703125 Z M 3.578125 -0.703125 "/></g></g></g></g><g fill="#000000" fill-opacity="1"><g transform="translate(7.585784, 10.285182)"><g><path d="M 1.828125 0 L 0.28125 -5.0625 L 1.140625 -5.0625 L 1.765625 -2.859375 C 1.847656 -2.546875 1.9375 -2.195312 2.03125 -1.8125 C 2.132812 -1.4375 2.226562 -1.023438 2.3125 -0.578125 L 2.1875 -0.578125 C 2.28125 -1.015625 2.375 -1.421875 2.46875 -1.796875 C 2.5625 -2.171875 2.648438 -2.523438 2.734375 -2.859375 L 3.359375 -5.0625 L 4.203125 -5.0625 L 4.8125 -2.859375 C 4.894531 -2.535156 4.984375 -2.1875 5.078125 -1.8125 C 5.171875 -1.4375 5.265625 -1.023438 5.359375 -0.578125 L 5.21875 -0.578125 C 5.3125 -1.015625 5.40625 -1.421875 5.5 -1.796875 C 5.59375 -2.171875 5.6875 -2.523438 5.78125 -2.859375 L 6.40625 -5.0625 L 7.265625 -5.0625 L 5.71875 0 L 4.90625 0 L 4.25 -2.296875 C 4.175781 -2.523438 4.109375 -2.757812 4.046875 -3 C 3.984375 -3.238281 3.921875 -3.484375 3.859375 -3.734375 C 3.804688 -3.984375 3.742188 -4.238281 3.671875 -4.5 L 3.875 -4.5 C 3.8125 -4.25 3.75 -3.992188 3.6875 -3.734375 C 3.625 -3.484375 3.5625 -3.238281 3.5 -3 C 3.4375 -2.757812 3.367188 -2.523438 3.296875 -2.296875 L 2.640625 0 Z M 1.828125 0 "/></g></g></g><g fill="#000000" fill-opacity="1"><g transform="translate(15.288081, 10.285182)"><g><path d="M 1.515625 -3.015625 L 1.515625 0 L 0.6875 0 L 0.6875 -5.0625 L 1.46875 -5.0625 L 1.484375 -3.84375 L 1.34375 -3.84375 C 1.5 -4.300781 1.71875 -4.628906 2 -4.828125 C 2.289062 -5.035156 2.628906 -5.140625 3.015625 -5.140625 C 3.359375 -5.140625 3.660156 -5.066406 3.921875 -4.921875 C 4.179688 -4.773438 4.382812 -4.5625 4.53125 -4.28125 C 4.6875 -4 4.765625 -3.640625 4.765625 -3.203125 L 4.765625 0 L 3.953125 0 L 3.953125 -3.140625 C 3.953125 -3.535156 3.847656 -3.84375 3.640625 -4.0625 C 3.429688 -4.28125 3.148438 -4.390625 2.796875 -4.390625 C 2.554688 -4.390625 2.335938 -4.335938 2.140625 -4.234375 C 1.941406 -4.128906 1.785156 -3.972656 1.671875 -3.765625 C 1.566406 -3.566406 1.515625 -3.316406 1.515625 -3.015625 Z M 1.515625 -3.015625 "/></g></g></g><g fill="#000000" fill-opacity="1"><g transform="translate(20.89822, 10.285182)"><g/></g></g><g clip-path="url(#bd48abfed4)"><g fill="#000000" fill-opacity="1"><g transform="translate(23.627053, 10.285182)"><g><path d="M 0.640625 1.875 L 0.796875 1.15625 L 0.96875 1.171875 C 1.125 1.210938 1.265625 1.21875 1.390625 1.1875 C 1.515625 1.164062 1.625 1.097656 1.71875 0.984375 C 1.820312 0.878906 1.910156 0.71875 1.984375 0.5 L 2.171875 0.015625 L 0.21875 -5.0625 L 1.109375 -5.0625 L 2.203125 -2.078125 C 2.304688 -1.773438 2.394531 -1.476562 2.46875 -1.1875 C 2.550781 -0.894531 2.640625 -0.609375 2.734375 -0.328125 L 2.453125 -0.328125 C 2.535156 -0.609375 2.613281 -0.894531 2.6875 -1.1875 C 2.769531 -1.476562 2.867188 -1.773438 2.984375 -2.078125 L 4.0625 -5.0625 L 4.953125 -5.0625 L 2.703125 0.796875 C 2.597656 1.054688 2.472656 1.269531 2.328125 1.4375 C 2.191406 1.613281 2.03125 1.738281 1.84375 1.8125 C 1.65625 1.894531 1.441406 1.9375 1.203125 1.9375 C 1.078125 1.9375 0.960938 1.925781 0.859375 1.90625 C 0.753906 1.894531 0.679688 1.882812 0.640625 1.875 Z M 0.640625 1.875 "/></g></g></g></g><g fill="#000000" fill-opacity="1"><g transform="translate(28.952732, 10.285182)"><g><path d="M 2.765625 0.109375 C 2.296875 0.109375 1.890625 0 1.546875 -0.21875 C 1.203125 -0.4375 0.929688 -0.742188 0.734375 -1.140625 C 0.535156 -1.535156 0.4375 -1.988281 0.4375 -2.5 C 0.4375 -3.03125 0.535156 -3.492188 0.734375 -3.890625 C 0.929688 -4.285156 1.203125 -4.59375 1.546875 -4.8125 C 1.890625 -5.03125 2.296875 -5.140625 2.765625 -5.140625 C 3.222656 -5.140625 3.625 -5.03125 3.96875 -4.8125 C 4.320312 -4.59375 4.59375 -4.285156 4.78125 -3.890625 C 4.976562 -3.492188 5.078125 -3.03125 5.078125 -2.5 C 5.078125 -1.988281 4.976562 -1.535156 4.78125 -1.140625 C 4.59375 -0.742188 4.320312 -0.4375 3.96875 -0.21875 C 3.625 0 3.222656 0.109375 2.765625 0.109375 Z M 2.765625 -0.625 C 3.097656 -0.625 3.375 -0.707031 3.59375 -0.875 C 3.8125 -1.039062 3.972656 -1.265625 4.078125 -1.546875 C 4.191406 -1.835938 4.25 -2.15625 4.25 -2.5 C 4.25 -2.84375 4.191406 -3.160156 4.078125 -3.453125 C 3.972656 -3.742188 3.8125 -3.972656 3.59375 -4.140625 C 3.375 -4.316406 3.097656 -4.40625 2.765625 -4.40625 C 2.429688 -4.40625 2.148438 -4.316406 1.921875 -4.140625 C 1.703125 -3.972656 1.535156 -3.742188 1.421875 -3.453125 C 1.316406 -3.171875 1.265625 -2.851562 1.265625 -2.5 C 1.265625 -2.15625 1.316406 -1.835938 1.421875 -1.546875 C 1.535156 -1.265625 1.703125 -1.039062 1.921875 -0.875 C 2.140625 -0.707031 2.421875 -0.625 2.765625 -0.625 Z M 2.765625 -0.625 "/></g></g></g><g fill="#000000" fill-opacity="1"><g transform="translate(34.631692, 10.285182)"><g><path d="M 2.4375 0.0625 C 2.09375 0.0625 1.789062 -0.00390625 1.53125 -0.140625 C 1.269531 -0.285156 1.0625 -0.5 0.90625 -0.78125 C 0.757812 -1.070312 0.6875 -1.429688 0.6875 -1.859375 L 0.6875 -5.0625 L 1.515625 -5.0625 L 1.515625 -1.9375 C 1.515625 -1.53125 1.613281 -1.21875 1.8125 -1 C 2.019531 -0.78125 2.300781 -0.671875 2.65625 -0.671875 C 2.90625 -0.671875 3.125 -0.722656 3.3125 -0.828125 C 3.507812 -0.929688 3.664062 -1.082031 3.78125 -1.28125 C 3.894531 -1.488281 3.953125 -1.742188 3.953125 -2.046875 L 3.953125 -5.0625 L 4.765625 -5.0625 L 4.765625 0 L 3.984375 0 L 3.984375 -1.234375 L 4.109375 -1.234375 C 3.953125 -0.753906 3.726562 -0.414062 3.4375 -0.21875 C 3.144531 -0.03125 2.8125 0.0625 2.4375 0.0625 Z M 2.4375 0.0625 "/></g></g></g><g fill="#000000" fill-opacity="1"><g transform="translate(40.24642, 10.285182)"><g><path d="M 0.6875 0 L 0.6875 -5.0625 L 1.46875 -5.0625 L 1.46875 -4.28125 L 1.515625 -4.28125 C 1.617188 -4.539062 1.785156 -4.75 2.015625 -4.90625 C 2.242188 -5.0625 2.507812 -5.140625 2.8125 -5.140625 C 2.875 -5.140625 2.945312 -5.132812 3.03125 -5.125 C 3.113281 -5.125 3.175781 -5.125 3.21875 -5.125 L 3.21875 -4.296875 C 3.1875 -4.304688 3.125 -4.316406 3.03125 -4.328125 C 2.9375 -4.335938 2.832031 -4.34375 2.71875 -4.34375 C 2.488281 -4.34375 2.28125 -4.289062 2.09375 -4.1875 C 1.914062 -4.09375 1.773438 -3.957031 1.671875 -3.78125 C 1.566406 -3.601562 1.515625 -3.394531 1.515625 -3.15625 L 1.515625 0 Z M 0.6875 0 "/></g></g></g><g fill="#000000" fill-opacity="1"><g transform="translate(43.819457, 10.285182)"><g/></g></g><g fill="#000000" fill-opacity="1"><g transform="translate(46.54829, 10.285182)"><g><path d="M 1.828125 0 L 0.28125 -5.0625 L 1.140625 -5.0625 L 1.765625 -2.859375 C 1.847656 -2.546875 1.9375 -2.195312 2.03125 -1.8125 C 2.132812 -1.4375 2.226562 -1.023438 2.3125 -0.578125 L 2.1875 -0.578125 C 2.28125 -1.015625 2.375 -1.421875 2.46875 -1.796875 C 2.5625 -2.171875 2.648438 -2.523438 2.734375 -2.859375 L 3.359375 -5.0625 L 4.203125 -5.0625 L 4.8125 -2.859375 C 4.894531 -2.535156 4.984375 -2.1875 5.078125 -1.8125 C 5.171875 -1.4375 5.265625 -1.023438 5.359375 -0.578125 L 5.21875 -0.578125 C 5.3125 -1.015625 5.40625 -1.421875 5.5 -1.796875 C 5.59375 -2.171875 5.6875 -2.523438 5.78125 -2.859375 L 6.40625 -5.0625 L 7.265625 -5.0625 L 5.71875 0 L 4.90625 0 L 4.25 -2.296875 C 4.175781 -2.523438 4.109375 -2.757812 4.046875 -3 C 3.984375 -3.238281 3.921875 -3.484375 3.859375 -3.734375 C 3.804688 -3.984375 3.742188 -4.238281 3.671875 -4.5 L 3.875 -4.5 C 3.8125 -4.25 3.75 -3.992188 3.6875 -3.734375 C 3.625 -3.484375 3.5625 -3.238281 3.5 -3 C 3.4375 -2.757812 3.367188 -2.523438 3.296875 -2.296875 L 2.640625 0 Z M 1.828125 0 "/></g></g></g><g fill="#000000" fill-opacity="1"><g transform="translate(54.250588, 10.285182)"><g><path d="M 2.765625 0.109375 C 2.296875 0.109375 1.890625 0 1.546875 -0.21875 C 1.203125 -0.4375 0.929688 -0.742188 0.734375 -1.140625 C 0.535156 -1.535156 0.4375 -1.988281 0.4375 -2.5 C 0.4375 -3.03125 0.535156 -3.492188 0.734375 -3.890625 C 0.929688 -4.285156 1.203125 -4.59375 1.546875 -4.8125 C 1.890625 -5.03125 2.296875 -5.140625 2.765625 -5.140625 C 3.222656 -5.140625 3.625 -5.03125 3.96875 -4.8125 C 4.320312 -4.59375 4.59375 -4.285156 4.78125 -3.890625 C 4.976562 -3.492188 5.078125 -3.03125 5.078125 -2.5 C 5.078125 -1.988281 4.976562 -1.535156 4.78125 -1.140625 C 4.59375 -0.742188 4.320312 -0.4375 3.96875 -0.21875 C 3.625 0 3.222656 0.109375 2.765625 0.109375 Z M 2.765625 -0.625 C 3.097656 -0.625 3.375 -0.707031 3.59375 -0.875 C 3.8125 -1.039062 3.972656 -1.265625 4.078125 -1.546875 C 4.191406 -1.835938 4.25 -2.15625 4.25 -2.5 C 4.25 -2.84375 4.191406 -3.160156 4.078125 -3.453125 C 3.972656 -3.742188 3.8125 -3.972656 3.59375 -4.140625 C 3.375 -4.316406 3.097656 -4.40625 2.765625 -4.40625 C 2.429688 -4.40625 2.148438 -4.316406 1.921875 -4.140625 C 1.703125 -3.972656 1.535156 -3.742188 1.421875 -3.453125 C 1.316406 -3.171875 1.265625 -2.851562 1.265625 -2.5 C 1.265625 -2.15625 1.316406 -1.835938 1.421875 -1.546875 C 1.535156 -1.265625 1.703125 -1.039062 1.921875 -0.875 C 2.140625 -0.707031 2.421875 -0.625 2.765625 -0.625 Z M 2.765625 -0.625 "/></g></g></g><g fill="#000000" fill-opacity="1"><g transform="translate(59.929548, 10.285182)"><g><path d="M 0.6875 0 L 0.6875 -5.0625 L 1.46875 -5.0625 L 1.46875 -4.28125 L 1.515625 -4.28125 C 1.617188 -4.539062 1.785156 -4.75 2.015625 -4.90625 C 2.242188 -5.0625 2.507812 -5.140625 2.8125 -5.140625 C 2.875 -5.140625 2.945312 -5.132812 3.03125 -5.125 C 3.113281 -5.125 3.175781 -5.125 3.21875 -5.125 L 3.21875 -4.296875 C 3.1875 -4.304688 3.125 -4.316406 3.03125 -4.328125 C 2.9375 -4.335938 2.832031 -4.34375 2.71875 -4.34375 C 2.488281 -4.34375 2.28125 -4.289062 2.09375 -4.1875 C 1.914062 -4.09375 1.773438 -3.957031 1.671875 -3.78125 C 1.566406 -3.601562 1.515625 -3.394531 1.515625 -3.15625 L 1.515625 0 Z M 0.6875 0 "/></g></g></g><g fill="#000000" fill-opacity="1"><g transform="translate(63.502585, 10.285182)"><g><path d="M 1.453125 -1.828125 L 1.453125 -2.8125 L 1.59375 -2.8125 L 3.796875 -5.0625 L 4.8125 -5.0625 L 2.4375 -2.65625 L 2.359375 -2.65625 Z M 0.6875 0 L 0.6875 -6.828125 L 1.515625 -6.828125 L 1.515625 0 Z M 3.921875 0 L 1.96875 -2.484375 L 2.546875 -3.046875 L 4.96875 0 Z M 3.921875 0 "/></g></g></g><g fill="#000000" fill-opacity="1"><g transform="translate(68.722739, 10.285182)"><g/></g></g><g fill="#000000" fill-opacity="1"><g transform="translate(71.451572, 10.285182)"><g><path d="M 1.515625 -3.015625 L 1.515625 0 L 0.6875 0 L 0.6875 -6.828125 L 1.515625 -6.828125 L 1.515625 -3.84375 L 1.34375 -3.84375 C 1.5 -4.300781 1.71875 -4.628906 2 -4.828125 C 2.289062 -5.035156 2.628906 -5.140625 3.015625 -5.140625 C 3.359375 -5.140625 3.660156 -5.066406 3.921875 -4.921875 C 4.191406 -4.773438 4.398438 -4.5625 4.546875 -4.28125 C 4.691406 -4 4.765625 -3.640625 4.765625 -3.203125 L 4.765625 0 L 3.953125 0 L 3.953125 -3.140625 C 3.953125 -3.535156 3.847656 -3.84375 3.640625 -4.0625 C 3.429688 -4.28125 3.148438 -4.390625 2.796875 -4.390625 C 2.554688 -4.390625 2.335938 -4.335938 2.140625 -4.234375 C 1.941406 -4.128906 1.785156 -3.972656 1.671875 -3.765625 C 1.566406 -3.566406 1.515625 -3.316406 1.515625 -3.015625 Z M 1.515625 -3.015625 "/></g></g></g><g fill="#000000" fill-opacity="1"><g transform="translate(77.066299, 10.285182)"><g><path d="M 2.765625 0.109375 C 2.296875 0.109375 1.890625 0 1.546875 -0.21875 C 1.203125 -0.4375 0.929688 -0.742188 0.734375 -1.140625 C 0.535156 -1.535156 0.4375 -1.988281 0.4375 -2.5 C 0.4375 -3.03125 0.535156 -3.492188 0.734375 -3.890625 C 0.929688 -4.285156 1.203125 -4.59375 1.546875 -4.8125 C 1.890625 -5.03125 2.296875 -5.140625 2.765625 -5.140625 C 3.222656 -5.140625 3.625 -5.03125 3.96875 -4.8125 C 4.320312 -4.59375 4.59375 -4.285156 4.78125 -3.890625 C 4.976562 -3.492188 5.078125 -3.03125 5.078125 -2.5 C 5.078125 -1.988281 4.976562 -1.535156 4.78125 -1.140625 C 4.59375 -0.742188 4.320312 -0.4375 3.96875 -0.21875 C 3.625 0 3.222656 0.109375 2.765625 0.109375 Z M 2.765625 -0.625 C 3.097656 -0.625 3.375 -0.707031 3.59375 -0.875 C 3.8125 -1.039062 3.972656 -1.265625 4.078125 -1.546875 C 4.191406 -1.835938 4.25 -2.15625 4.25 -2.5 C 4.25 -2.84375 4.191406 -3.160156 4.078125 -3.453125 C 3.972656 -3.742188 3.8125 -3.972656 3.59375 -4.140625 C 3.375 -4.316406 3.097656 -4.40625 2.765625 -4.40625 C 2.429688 -4.40625 2.148438 -4.316406 1.921875 -4.140625 C 1.703125 -3.972656 1.535156 -3.742188 1.421875 -3.453125 C 1.316406 -3.171875 1.265625 -2.851562 1.265625 -2.5 C 1.265625 -2.15625 1.316406 -1.835938 1.421875 -1.546875 C 1.535156 -1.265625 1.703125 -1.039062 1.921875 -0.875 C 2.140625 -0.707031 2.421875 -0.625 2.765625 -0.625 Z M 2.765625 -0.625 "/></g></g></g><g fill="#000000" fill-opacity="1"><g transform="translate(82.745259, 10.285182)"><g><path d="M 2.4375 0.0625 C 2.09375 0.0625 1.789062 -0.00390625 1.53125 -0.140625 C 1.269531 -0.285156 1.0625 -0.5 0.90625 -0.78125 C 0.757812 -1.070312 0.6875 -1.429688 0.6875 -1.859375 L 0.6875 -5.0625 L 1.515625 -5.0625 L 1.515625 -1.9375 C 1.515625 -1.53125 1.613281 -1.21875 1.8125 -1 C 2.019531 -0.78125 2.300781 -0.671875 2.65625 -0.671875 C 2.90625 -0.671875 3.125 -0.722656 3.3125 -0.828125 C 3.507812 -0.929688 3.664062 -1.082031 3.78125 -1.28125 C 3.894531 -1.488281 3.953125 -1.742188 3.953125 -2.046875 L 3.953125 -5.0625 L 4.765625 -5.0625 L 4.765625 0 L 3.984375 0 L 3.984375 -1.234375 L 4.109375 -1.234375 C 3.953125 -0.753906 3.726562 -0.414062 3.4375 -0.21875 C 3.144531 -0.03125 2.8125 0.0625 2.4375 0.0625 Z M 2.4375 0.0625 "/></g></g></g><g fill="#000000" fill-opacity="1"><g transform="translate(88.359986, 10.285182)"><g><path d="M 0.6875 0 L 0.6875 -5.0625 L 1.46875 -5.0625 L 1.46875 -4.28125 L 1.515625 -4.28125 C 1.617188 -4.539062 1.785156 -4.75 2.015625 -4.90625 C 2.242188 -5.0625 2.507812 -5.140625 2.8125 -5.140625 C 2.875 -5.140625 2.945312 -5.132812 3.03125 -5.125 C 3.113281 -5.125 3.175781 -5.125 3.21875 -5.125 L 3.21875 -4.296875 C 3.1875 -4.304688 3.125 -4.316406 3.03125 -4.328125 C 2.9375 -4.335938 2.832031 -4.34375 2.71875 -4.34375 C 2.488281 -4.34375 2.28125 -4.289062 2.09375 -4.1875 C 1.914062 -4.09375 1.773438 -3.957031 1.671875 -3.78125 C 1.566406 -3.601562 1.515625 -3.394531 1.515625 -3.15625 L 1.515625 0 Z M 0.6875 0 "/></g></g></g><g fill="#000000" fill-opacity="1"><g transform="translate(91.933024, 10.285182)"><g><path d="M 2.421875 0.109375 C 2.066406 0.109375 1.753906 0.0546875 1.484375 -0.046875 C 1.210938 -0.148438 0.988281 -0.304688 0.8125 -0.515625 C 0.632812 -0.722656 0.519531 -0.976562 0.46875 -1.28125 L 1.25 -1.4375 C 1.3125 -1.15625 1.441406 -0.941406 1.640625 -0.796875 C 1.835938 -0.660156 2.09375 -0.59375 2.40625 -0.59375 C 2.757812 -0.59375 3.039062 -0.664062 3.25 -0.8125 C 3.457031 -0.96875 3.5625 -1.15625 3.5625 -1.375 C 3.5625 -1.550781 3.5 -1.695312 3.375 -1.8125 C 3.25 -1.925781 3.0625 -2.007812 2.8125 -2.0625 L 1.984375 -2.265625 C 1.515625 -2.378906 1.164062 -2.550781 0.9375 -2.78125 C 0.71875 -3.007812 0.609375 -3.300781 0.609375 -3.65625 C 0.609375 -3.945312 0.6875 -4.203125 0.84375 -4.421875 C 1.007812 -4.648438 1.234375 -4.828125 1.515625 -4.953125 C 1.796875 -5.078125 2.113281 -5.140625 2.46875 -5.140625 C 2.820312 -5.140625 3.125 -5.082031 3.375 -4.96875 C 3.625 -4.863281 3.828125 -4.710938 3.984375 -4.515625 C 4.140625 -4.316406 4.25 -4.085938 4.3125 -3.828125 L 3.5625 -3.6875 C 3.5 -3.882812 3.382812 -4.054688 3.21875 -4.203125 C 3.050781 -4.359375 2.804688 -4.4375 2.484375 -4.4375 C 2.171875 -4.4375 1.914062 -4.363281 1.71875 -4.21875 C 1.53125 -4.082031 1.4375 -3.910156 1.4375 -3.703125 C 1.4375 -3.515625 1.503906 -3.363281 1.640625 -3.25 C 1.773438 -3.132812 1.984375 -3.039062 2.265625 -2.96875 L 3.046875 -2.796875 C 3.503906 -2.679688 3.84375 -2.507812 4.0625 -2.28125 C 4.289062 -2.050781 4.40625 -1.765625 4.40625 -1.421875 C 4.40625 -1.117188 4.320312 -0.851562 4.15625 -0.625 C 3.988281 -0.394531 3.753906 -0.210938 3.453125 -0.078125 C 3.160156 0.046875 2.816406 0.109375 2.421875 0.109375 Z M 2.421875 0.109375 "/></g></g></g></g></g></g></g></g></svg>